<svg xmlns="http://www.w3.org/2000/svg" version="1.1" xmlns:xlink="http://www.w3.org/1999/xlink" xmlns:svgjs="http://svgjs.dev/svgjs" width="1000" height="623" viewBox="0 0 1000 623"><g transform="matrix(1,0,0,1,-0.6060606060606233,0.2522267206477409)"><svg viewBox="0 0 396 247" data-background-color="#f0cf90" preserveAspectRatio="xMidYMid meet" height="623" width="1000" xmlns="http://www.w3.org/2000/svg" xmlns:xlink="http://www.w3.org/1999/xlink"><g id="tight-bounds" transform="matrix(1,0,0,1,0.2400000000000091,-0.09999999999999432)"><svg viewBox="0 0 395.52 247.2" height="247.2" width="395.52"><g><svg></svg></g><g><svg viewBox="0 0 395.52 247.2" height="247.2" width="395.52"><g><path d="M55.039 247.2l26.403-45.732 7.584 0-22.403 38.804h262.274l-22.403-38.804 7.584 0 26.403 45.732zM197.76 0l26.403 45.732-7.583 0-18.82-32.596-18.82 32.596-7.583 0z" fill="#f3fa3a" fill-rule="nonzero" stroke="none" stroke-width="1" stroke-linecap="butt" stroke-linejoin="miter" stroke-miterlimit="10" stroke-dasharray="" stroke-dashoffset="0" font-family="none" font-weight="none" font-size="none" text-anchor="none" style="mix-blend-mode: normal" data-fill-palette-color="tertiary"></path></g><g transform="matrix(1,0,0,1,46.44884561891516,67.97999999999999)"><svg viewBox="0 0 302.62230876216967 111.24" height="111.24" width="302.62230876216967"><g><svg viewBox="0 0 302.62230876216967 111.24" height="111.24" width="302.62230876216967"><g><svg viewBox="0 0 302.62230876216967 111.24" height="111.24" width="302.62230876216967"><g><svg viewBox="0 0 302.62230876216967 111.24" height="111.24" width="302.62230876216967"><g id="textblocktransform"><svg viewBox="0 0 302.62230876216967 111.24" height="111.24" width="302.62230876216967" id="textblock"><g><svg viewBox="0 0 302.62230876216967 111.24" height="111.24" width="302.62230876216967"><g transform="matrix(1,0,0,1,0,0)"><svg width="302.62230876216967" viewBox="3.17 -34.69 95.51 35.11" height="111.24" data-palette-color="#ff4136"><path d="M3.17 0L16.92-34.69 23.66-34.69 37.38 0 31.05 0 27.17-9.08 13.01-9.08 9.13 0 3.17 0ZM15.14-14.72L25.02-14.72 20.09-27.59 15.14-14.72ZM51-34.69L51-18.8 66.82-34.69 74.7-34.69 58.03-18.09 75.58 0 67.6 0 51-16.8 51 0 44.85 0 44.85-34.69 51-34.69ZM92.52-12.52L92.52-34.69 98.68-34.69 98.68-12.48Q98.68-11.16 98.57-10.03 98.46-8.91 98.1-7.56 97.75-6.2 97.16-5.11 96.58-4.03 95.53-2.95 94.48-1.88 93.07-1.17 91.67-0.46 89.61-0.02 87.54 0.42 85 0.42L85 0.42Q82.39 0.42 79.98-0.2L79.98-0.2 79.05-0.44 80.07-5.86 81.1-5.62Q82.64-5.25 84.32-5.25L84.32-5.25Q85.93-5.25 87.24-5.55 88.54-5.86 89.39-6.31 90.23-6.76 90.85-7.45 91.47-8.13 91.78-8.74 92.08-9.35 92.27-10.14 92.45-10.94 92.49-11.43 92.52-11.91 92.52-12.52L92.52-12.52Z" opacity="1" transform="matrix(1,0,0,1,0,0)" fill="#ff4136" class="wordmark-text-0" data-fill-palette-color="primary" id="text-0"></path></svg></g></svg></g></svg></g></svg></g></svg></g></svg></g></svg></g></svg></g><defs></defs></svg><rect width="395.52" height="247.2" fill="none" stroke="none" visibility="hidden"></rect></g></svg></g></svg>