<svg xmlns="http://www.w3.org/2000/svg" version="1.1" xmlns:xlink="http://www.w3.org/1999/xlink" xmlns:svgjs="http://svgjs.dev/svgjs" width="1000" height="1125" viewBox="0 0 1000 1125"><g transform="matrix(1,0,0,1,0,0)"><svg viewBox="0 0 320 360" data-background-color="#f0cf90" preserveAspectRatio="xMidYMid meet" height="1125" width="1000" xmlns="http://www.w3.org/2000/svg" xmlns:xlink="http://www.w3.org/1999/xlink"><g id="tight-bounds" transform="matrix(1,0,0,1,0,0)"><svg viewBox="0 0 320 360" height="360" width="320"><g><svg></svg></g><g><svg viewBox="0 0 320 360" height="360" width="320"><g><path xmlns="http://www.w3.org/2000/svg" d="M320 141.95l-19.957-19.957v-28.224l-53.812-53.812h-28.223l-19.958-19.957h-76.1l-19.957 19.957h-28.224l-53.812 53.812v28.224l-19.957 19.957v76.104l19.957 19.958v28.223l53.816 53.808h28.224l19.957 19.957h76.104l19.958-19.957h28.223l53.812-53.812v-28.224l19.949-19.957zM244.374 44.437l51.189 51.189v21.887l-73.076-73.076zM295.563 123.849v112.306l-79.408 79.408h-112.306l-79.412-79.412v-112.302l79.412-79.412h112.306zM123.807 24.48h72.39l15.478 15.477h-103.346zM24.437 95.626l51.189-51.189h21.887l-73.076 73.076zM4.484 216.197v-72.394l15.477-15.478v103.342zM75.626 315.563l-51.189-51.189v-21.887l73.076 73.076zM196.197 335.52h-72.39l-15.478-15.477h103.342zM295.563 264.374l-51.189 51.189h-21.887l73.076-73.076zM315.52 216.197l-15.477 15.478v-103.346l15.477 15.478z" fill="#f3fa3a" fill-rule="nonzero" stroke="none" stroke-width="1" stroke-linecap="butt" stroke-linejoin="miter" stroke-miterlimit="10" stroke-dasharray="" stroke-dashoffset="0" font-family="none" font-weight="none" font-size="none" text-anchor="none" style="mix-blend-mode: normal" data-fill-palette-color="tertiary"></path></g><g transform="matrix(1,0,0,1,56.000000000000014,141.7709611451943)"><svg viewBox="0 0 207.99999999999997 76.45807770961144" height="76.45807770961144" width="207.99999999999997"><g><svg viewBox="0 0 207.99999999999997 76.45807770961144" height="76.45807770961144" width="207.99999999999997"><g><svg viewBox="0 0 207.99999999999997 76.45807770961144" height="76.45807770961144" width="207.99999999999997"><g><svg viewBox="0 0 207.99999999999997 76.45807770961144" height="76.45807770961144" width="207.99999999999997"><g id="textblocktransform"><svg viewBox="0 0 207.99999999999997 76.45807770961144" height="76.45807770961144" width="207.99999999999997" id="textblock"><g><svg viewBox="0 0 207.99999999999997 76.45807770961144" height="76.45807770961144" width="207.99999999999997"><g transform="matrix(1,0,0,1,0,0)"><svg width="207.99999999999997" viewBox="3.1700000762939453 -34.689998626708984 95.51000213623047 35.1099967956543" height="76.45807770961144" data-palette-color="#f3fa3a"><path d="M3.17 0L16.92-34.69 23.66-34.69 37.38 0 31.05 0 27.17-9.08 13.01-9.08 9.13 0 3.17 0ZM15.14-14.72L25.02-14.72 20.09-27.59 15.14-14.72ZM51-34.69L51-18.8 66.82-34.69 74.7-34.69 58.03-18.09 75.58 0 67.6 0 51-16.8 51 0 44.85 0 44.85-34.69 51-34.69ZM92.52-12.52L92.52-34.69 98.68-34.69 98.68-12.48Q98.68-11.16 98.57-10.03 98.46-8.91 98.1-7.56 97.75-6.2 97.16-5.11 96.58-4.03 95.53-2.95 94.48-1.88 93.07-1.17 91.67-0.46 89.61-0.02 87.54 0.42 85 0.42L85 0.42Q82.39 0.42 79.98-0.2L79.98-0.2 79.05-0.44 80.07-5.86 81.1-5.62Q82.64-5.25 84.32-5.25L84.32-5.25Q85.93-5.25 87.24-5.55 88.54-5.86 89.39-6.31 90.23-6.76 90.85-7.45 91.47-8.13 91.78-8.74 92.08-9.35 92.27-10.14 92.45-10.94 92.49-11.43 92.52-11.91 92.52-12.52L92.52-12.52Z" opacity="1" transform="matrix(1,0,0,1,0,0)" fill="#f3fa3a" class="wordmark-text-0" data-fill-palette-color="primary" id="text-0"></path></svg></g></svg></g></svg></g></svg></g></svg></g></svg></g></svg></g></svg></g><defs></defs></svg><rect width="320" height="360" fill="none" stroke="none" visibility="hidden"></rect></g></svg></g></svg>